<svg width="130" height="18" viewBox="0 0 130 18" fill="none" xmlns="http://www.w3.org/2000/svg">
<g clip-path="url(#clip0_9_374)">
<path d="M8 0.272949C3.58176 0.272949 0 3.85471 0 8.27295C0 12.0246 2.58304 15.1728 6.06752 16.0374V10.7177H4.41792V8.27295H6.06752V7.21951C6.06752 4.49663 7.29984 3.23455 9.97312 3.23455C10.48 3.23455 11.3546 3.33407 11.7123 3.43327V5.64927C11.5235 5.62943 11.1955 5.61951 10.7882 5.61951C9.47648 5.61951 8.9696 6.11647 8.9696 7.40831V8.27295H11.5827L11.1338 10.7177H8.9696V16.2144C12.9309 15.736 16.0003 12.3632 16.0003 8.27295C16 3.85471 12.4182 0.272949 8 0.272949Z" fill="white"/>
</g>
<g clip-path="url(#clip1_9_374)">
<path d="M45 1.91572C47.1375 1.91572 47.3906 1.9251 48.2313 1.9626C49.0125 1.99697 49.4344 2.12822 49.7156 2.2376C50.0875 2.38135 50.3563 2.55635 50.6344 2.83447C50.9156 3.11572 51.0875 3.38135 51.2313 3.75322C51.3406 4.03447 51.4719 4.45947 51.5063 5.2376C51.5438 6.08135 51.5531 6.33447 51.5531 8.46885C51.5531 10.6063 51.5438 10.8595 51.5063 11.7001C51.4719 12.4813 51.3406 12.9032 51.2313 13.1845C51.0875 13.5563 50.9125 13.8251 50.6344 14.1032C50.3531 14.3845 50.0875 14.5563 49.7156 14.7001C49.4344 14.8095 49.0094 14.9407 48.2313 14.9751C47.3875 15.0126 47.1344 15.022 45 15.022C42.8625 15.022 42.6094 15.0126 41.7688 14.9751C40.9875 14.9407 40.5656 14.8095 40.2844 14.7001C39.9125 14.5563 39.6438 14.3813 39.3656 14.1032C39.0844 13.822 38.9125 13.5563 38.7688 13.1845C38.6594 12.9032 38.5281 12.4782 38.4938 11.7001C38.4563 10.8563 38.4469 10.6032 38.4469 8.46885C38.4469 6.33135 38.4563 6.07822 38.4938 5.2376C38.5281 4.45635 38.6594 4.03447 38.7688 3.75322C38.9125 3.38135 39.0875 3.1126 39.3656 2.83447C39.6469 2.55322 39.9125 2.38135 40.2844 2.2376C40.5656 2.12822 40.9906 1.99697 41.7688 1.9626C42.6094 1.9251 42.8625 1.91572 45 1.91572ZM45 0.475098C42.8281 0.475098 42.5563 0.484473 41.7031 0.521973C40.8531 0.559473 40.2688 0.696973 39.7625 0.893848C39.2344 1.1001 38.7875 1.37197 38.3438 1.81885C37.8969 2.2626 37.625 2.70947 37.4188 3.23447C37.2219 3.74385 37.0844 4.3251 37.0469 5.1751C37.0094 6.03135 37 6.30322 37 8.4751C37 10.647 37.0094 10.9188 37.0469 11.772C37.0844 12.622 37.2219 13.2063 37.4188 13.7126C37.625 14.2407 37.8969 14.6876 38.3438 15.1313C38.7875 15.5751 39.2344 15.8501 39.7594 16.0532C40.2688 16.2501 40.85 16.3876 41.7 16.4251C42.5531 16.4626 42.825 16.472 44.9969 16.472C47.1688 16.472 47.4406 16.4626 48.2938 16.4251C49.1438 16.3876 49.7281 16.2501 50.2344 16.0532C50.7594 15.8501 51.2063 15.5751 51.65 15.1313C52.0938 14.6876 52.3688 14.2407 52.5719 13.7157C52.7688 13.2063 52.9063 12.6251 52.9438 11.7751C52.9813 10.922 52.9906 10.6501 52.9906 8.47822C52.9906 6.30635 52.9813 6.03447 52.9438 5.18135C52.9063 4.33135 52.7688 3.74697 52.5719 3.24072C52.375 2.70947 52.1031 2.2626 51.6563 1.81885C51.2125 1.3751 50.7656 1.1001 50.2406 0.896973C49.7313 0.700098 49.15 0.562598 48.3 0.525098C47.4438 0.484473 47.1719 0.475098 45 0.475098Z" fill="white"/>
<path d="M45 4.36572C42.7313 4.36572 40.8906 6.20635 40.8906 8.4751C40.8906 10.7438 42.7313 12.5845 45 12.5845C47.2688 12.5845 49.1094 10.7438 49.1094 8.4751C49.1094 6.20635 47.2688 4.36572 45 4.36572ZM45 11.1407C43.5281 11.1407 42.3344 9.94697 42.3344 8.4751C42.3344 7.00322 43.5281 5.80947 45 5.80947C46.4719 5.80947 47.6656 7.00322 47.6656 8.4751C47.6656 9.94697 46.4719 11.1407 45 11.1407Z" fill="white"/>
<path d="M50.2312 4.20318C50.2312 4.73443 49.8 5.16256 49.2719 5.16256C48.7406 5.16256 48.3125 4.73131 48.3125 4.20318C48.3125 3.67193 48.7438 3.2438 49.2719 3.2438C49.8 3.2438 50.2312 3.67506 50.2312 4.20318Z" fill="white"/>
</g>
<g clip-path="url(#clip2_9_374)">
<path d="M93.8156 0.181152H80.1812C79.5281 0.181152 79 0.696777 79 1.33428V15.0249C79 15.6624 79.5281 16.1812 80.1812 16.1812H93.8156C94.4688 16.1812 95 15.6624 95 15.028V1.33428C95 0.696777 94.4688 0.181152 93.8156 0.181152ZM83.7469 13.8155H81.3719V6.17803H83.7469V13.8155ZM82.5594 5.1374C81.7969 5.1374 81.1813 4.52178 81.1813 3.7624C81.1813 3.00303 81.7969 2.3874 82.5594 2.3874C83.3188 2.3874 83.9344 3.00303 83.9344 3.7624C83.9344 4.51865 83.3188 5.1374 82.5594 5.1374ZM92.6344 13.8155H90.2625V10.103C90.2625 9.21865 90.2469 8.07803 89.0281 8.07803C87.7937 8.07803 87.6062 9.04365 87.6062 10.0405V13.8155H85.2375V6.17803H87.5125V7.22178H87.5437C87.8594 6.62178 88.6344 5.9874 89.7875 5.9874C92.1906 5.9874 92.6344 7.56865 92.6344 9.6249V13.8155Z" fill="white"/>
</g>
<path d="M129.831 5.28118C129.831 5.28118 129.665 4.10911 129.153 3.59446C128.506 2.91711 127.782 2.91379 127.45 2.87395C125.073 2.70129 121.503 2.70129 121.503 2.70129H121.497C121.497 2.70129 117.927 2.70129 115.55 2.87395C115.218 2.91379 114.494 2.91711 113.847 3.59446C113.335 4.10911 113.173 5.28118 113.173 5.28118C113.173 5.28118 113 6.65911 113 8.03372V9.322C113 10.6966 113.169 12.0745 113.169 12.0745C113.169 12.0745 113.335 13.2466 113.843 13.7613C114.491 14.4386 115.341 14.4154 115.719 14.4884C117.081 14.6179 121.5 14.6577 121.5 14.6577C121.5 14.6577 125.073 14.6511 127.45 14.4818C127.782 14.4419 128.506 14.4386 129.153 13.7613C129.665 13.2466 129.831 12.0745 129.831 12.0745C129.831 12.0745 130 10.6999 130 9.322V8.03372C130 6.65911 129.831 5.28118 129.831 5.28118ZM119.744 10.8859V6.10793L124.336 8.5052L119.744 10.8859Z" fill="white"/>
<defs>
<clipPath id="clip0_9_374">
<rect width="16" height="16" fill="white" transform="translate(0 0.272949)"/>
</clipPath>
<clipPath id="clip1_9_374">
<rect width="16" height="16" fill="white" transform="translate(37 0.475098)"/>
</clipPath>
<clipPath id="clip2_9_374">
<rect width="16" height="16" fill="white" transform="translate(79 0.181152)"/>
</clipPath>
</defs>
</svg>
