<svg width="36" height="36" viewBox="0 0 36 36" fill="none" xmlns="http://www.w3.org/2000/svg">
<rect width="36" height="36" rx="18" fill="#F2F4F7"/>
<path fill-rule="evenodd" clip-rule="evenodd" d="M15.2422 12.5237C13.896 12.5237 12.8047 13.615 12.8047 14.9612V20.9612C12.8047 22.3074 13.896 23.3987 15.2422 23.3987H21.2422C22.5884 23.3987 23.6797 22.3074 23.6797 20.9612V14.9612C23.6797 13.615 22.5884 12.5237 21.2422 12.5237H15.2422ZM11.6797 14.9612C11.6797 12.9937 13.2747 11.3987 15.2422 11.3987H21.2422C23.2097 11.3987 24.8047 12.9937 24.8047 14.9612V20.9612C24.8047 22.9287 23.2097 24.5237 21.2422 24.5237H15.2422C13.2747 24.5237 11.6797 22.9287 11.6797 20.9612V14.9612ZM18.2422 16.2737C17.3102 16.2737 16.5547 17.0292 16.5547 17.9612C16.5547 18.8932 17.3102 19.6487 18.2422 19.6487C19.1742 19.6487 19.9297 18.8932 19.9297 17.9612C19.9297 17.0292 19.1742 16.2737 18.2422 16.2737ZM15.4297 17.9612C15.4297 16.4079 16.6889 15.1487 18.2422 15.1487C19.7955 15.1487 21.0547 16.4079 21.0547 17.9612C21.0547 19.5145 19.7955 20.7737 18.2422 20.7737C16.6889 20.7737 15.4297 19.5145 15.4297 17.9612ZM22.1797 14.5862C22.1797 14.2755 21.9278 14.0237 21.6172 14.0237C21.3065 14.0237 21.0547 14.2755 21.0547 14.5862V14.5872C21.0547 14.8978 21.3065 15.1497 21.6172 15.1497C21.9278 15.1497 22.1797 14.8978 22.1797 14.5872V14.5862Z" fill="#282828"/>
</svg>
