<svg width="36" height="36" viewBox="0 0 36 36" fill="none" xmlns="http://www.w3.org/2000/svg">
<rect width="36" height="36" rx="18" fill="white"/>
<path d="M15 24L18 17.25" stroke="#282828" stroke-width="1.125" stroke-linecap="round" stroke-linejoin="round"/>
<path d="M17.025 19.5C17.3527 20.4473 18.0975 21 18.9375 21C20.4907 21 21.75 19.8345 21.75 18C21.7506 17.4524 21.6313 16.9112 21.4005 16.4147C21.1696 15.9181 20.8327 15.4781 20.4136 15.1256C19.9945 14.7731 19.5033 14.5167 18.9745 14.3744C18.4456 14.2321 17.8921 14.2074 17.3527 14.3019C16.8132 14.3964 16.3011 14.608 15.8522 14.9216C15.4033 15.2353 15.0285 15.6435 14.7542 16.1175C14.4799 16.5915 14.3128 17.1198 14.2646 17.6653C14.2163 18.2108 14.2882 18.7602 14.475 19.275" stroke="#282828" stroke-width="1.125" stroke-linecap="round" stroke-linejoin="round"/>
<path d="M18 24.75C21.7279 24.75 24.75 21.7279 24.75 18C24.75 14.2721 21.7279 11.25 18 11.25C14.2721 11.25 11.25 14.2721 11.25 18C11.25 21.7279 14.2721 24.75 18 24.75Z" stroke="#282828" stroke-width="1.125" stroke-linecap="round" stroke-linejoin="round"/>
</svg>
