<svg width="36" height="36" viewBox="0 0 36 36" fill="none" xmlns="http://www.w3.org/2000/svg">
<rect width="36" height="36" rx="18" fill="white"/>
<path d="M15.9155 17.9221C15.3222 17.9221 14.7422 18.0981 14.2488 18.4277C13.7555 18.7574 13.371 19.2259 13.1439 19.7741C12.9168 20.3222 12.8574 20.9254 12.9732 21.5074C13.0889 22.0893 13.3747 22.6239 13.7942 23.0434C14.2138 23.463 14.7483 23.7487 15.3303 23.8645C15.9122 23.9802 16.5154 23.9208 17.0636 23.6938C17.6118 23.4667 18.0803 23.0822 18.4099 22.5888C18.7396 22.0955 18.9155 21.5155 18.9155 20.9221V11.9221C18.9155 12.9167 19.3106 13.8705 20.0139 14.5738C20.7171 15.277 21.671 15.6721 22.6655 15.6721" stroke="#282828" stroke-width="1.125" stroke-linecap="round" stroke-linejoin="round"/>
</svg>
