<svg width="131" height="25" viewBox="0 0 131 25" fill="none" xmlns="http://www.w3.org/2000/svg">
<g clip-path="url(#clip0_8_2327)">
<path d="M97.862 6.1417C98.8811 6.1417 99.8063 6.27132 100.638 6.53055C101.469 6.78979 102.171 7.12501 102.743 7.53621C103.1 7.78651 103.382 8.06362 103.588 8.36756C103.793 8.67149 103.896 9.06481 103.896 9.54753V18.9337L103.892 19.1889C103.862 20.0289 103.685 20.7617 103.36 21.3875C103.002 22.0758 102.515 22.6479 101.898 23.1038C101.281 23.5597 100.557 23.8949 99.7258 24.1095C98.8945 24.324 98.005 24.4313 97.0575 24.4313C95.4305 24.4313 94.1522 24.2123 93.2225 23.7742C92.2929 23.3362 91.828 22.6256 91.828 21.6423C91.828 21.231 91.913 20.869 92.0828 20.5561C92.2526 20.2433 92.4448 20.0064 92.6594 19.8455C93.1779 20.1315 93.7634 20.3729 94.4159 20.5695C95.0685 20.7662 95.7434 20.8645 96.4407 20.8645C97.4061 20.8645 98.1749 20.7036 98.747 20.3818C99.3191 20.06 99.6051 19.5415 99.6051 18.8264V18.3973L99.4012 18.4811C98.7083 18.7471 97.8823 18.88 96.9234 18.88C96.1189 18.88 95.3545 18.7594 94.6305 18.518C93.9064 18.2766 93.2717 17.9012 92.7264 17.3917C92.1811 16.8821 91.7431 16.2251 91.4124 15.4206C91.0816 14.616 90.9162 13.6596 90.9162 12.5511C90.9162 11.4605 91.0906 10.513 91.4392 9.70844C91.7878 8.90391 92.2705 8.23794 92.8873 7.71053C93.5041 7.18311 94.2372 6.78979 95.0864 6.53055C95.9356 6.27132 96.8608 6.1417 97.862 6.1417ZM25.6766 6.55802C27.271 6.55802 28.5756 6.91578 29.5906 7.63129C30.6055 8.34681 31.2063 9.61063 31.393 11.4227H27.9865L27.9539 11.2223C27.8767 10.8271 27.7282 10.4661 27.5082 10.1395C27.1349 9.62618 26.5555 9.36953 25.77 9.36953C24.65 9.36953 23.8839 9.92561 23.4717 11.0378C23.254 11.6288 23.1451 12.4144 23.1451 13.3943C23.1451 14.3276 23.254 15.0781 23.4717 15.6458C23.8684 16.7036 24.615 17.2324 25.7116 17.2324C26.4894 17.2324 27.0416 17.0224 27.3682 16.6025C27.6948 16.1825 27.8932 15.6381 27.9632 14.9692H31.358L31.3349 15.2016C31.2223 16.1271 30.8644 17.0063 30.2614 17.8391C29.2192 19.2934 27.6754 20.0206 25.63 20.0206C23.5845 20.0206 22.0796 19.414 21.1152 18.2007C20.1508 16.9874 19.6686 15.4125 19.6686 13.476C19.6686 11.2905 20.2014 9.59118 21.2669 8.37792C22.3324 7.16465 23.8023 6.55802 25.6766 6.55802ZM56.5736 6.52302C57.6313 6.52302 58.584 6.72134 59.4318 7.11799C60.2795 7.51463 60.9795 8.14071 61.5316 8.99622C62.0294 9.75062 62.3522 10.6256 62.4999 11.6211C62.5855 12.2044 62.6205 13.0443 62.6049 14.1409H53.9021L53.914 14.3621C53.9971 15.5203 54.3936 16.341 55.1037 16.8241C55.5625 17.143 56.1147 17.3024 56.7602 17.3024C57.4446 17.3024 58.0007 17.108 58.4285 16.7191C58.6618 16.5091 58.8679 16.2175 59.0468 15.8442H62.4416L62.4164 16.0185C62.2938 16.7165 61.9094 17.4245 61.2633 18.1424C60.1745 19.379 58.6501 19.9973 56.6902 19.9973C55.0726 19.9973 53.6454 19.4762 52.4088 18.434C51.1722 17.3919 50.5539 15.6964 50.5539 13.3476C50.5539 11.1467 51.1119 9.45897 52.228 8.28459C53.344 7.11021 54.7926 6.52302 56.5736 6.52302ZM79.9186 1.85089C80.3119 1.85089 80.665 1.87771 80.9779 1.93134C81.2908 1.98498 81.5545 2.09225 81.769 2.25315C81.9836 2.41406 82.1489 2.63307 82.2651 2.91018C82.3813 3.1873 82.4395 3.54933 82.4395 3.99629V19.5505L82.3494 19.5666C82.1579 19.6006 81.8974 19.6443 81.5679 19.698C81.1835 19.7606 80.7946 19.7918 80.4013 19.7918C80.008 19.7918 79.6549 19.765 79.342 19.7114C79.0292 19.6578 78.7654 19.5505 78.5509 19.3896C78.3364 19.2287 78.171 19.0097 78.0548 18.7325C77.9386 18.4554 77.8805 18.0934 77.8805 17.6464V2.09225L77.9705 2.0761C78.162 2.04217 78.4226 1.99838 78.752 1.94475C79.1364 1.88218 79.5253 1.85089 79.9186 1.85089ZM86.7717 6.49033C87.165 6.49033 87.5181 6.51714 87.831 6.57078C88.1439 6.62441 88.4076 6.73168 88.6221 6.89259C88.8367 7.0535 89.002 7.27251 89.1182 7.54962C89.2345 7.82674 89.2926 8.18877 89.2926 8.63573V19.5505L89.2025 19.5666C89.011 19.6006 88.7505 19.6443 88.421 19.698C88.0366 19.7606 87.6478 19.7918 87.2544 19.7918C86.8611 19.7918 86.508 19.765 86.1951 19.7114C85.8823 19.6578 85.6186 19.5505 85.404 19.3896C85.1895 19.2287 85.0241 19.0097 84.9079 18.7325C84.7917 18.4554 84.7336 18.0934 84.7336 17.6464V6.73169L84.8236 6.71554C85.0152 6.68161 85.2757 6.63782 85.6051 6.58419C85.9895 6.52161 86.3784 6.49033 86.7717 6.49033ZM108.121 1.85089C108.514 1.85089 108.867 1.87771 109.18 1.93134C109.493 1.98498 109.757 2.09225 109.971 2.25315C110.186 2.41406 110.351 2.63307 110.467 2.91018C110.584 3.1873 110.642 3.54933 110.642 3.99629V6.62441L110.735 6.59026C110.964 6.50911 111.287 6.4177 111.701 6.31601C112.175 6.1998 112.698 6.1417 113.27 6.1417C115.04 6.1417 116.421 6.58419 117.413 7.46917C118.405 8.35415 118.902 9.67268 118.902 11.4248V19.5505L118.819 19.5735C118.64 19.6194 118.386 19.6654 118.057 19.7114C117.672 19.765 117.275 19.7918 116.863 19.7918C116.47 19.7918 116.117 19.765 115.804 19.7114C115.491 19.6578 115.228 19.5505 115.013 19.3896C114.798 19.2287 114.633 19.0097 114.517 18.7325C114.401 18.4554 114.343 18.0934 114.343 17.6464V11.6929L114.339 11.5277C114.313 10.8821 114.131 10.4232 113.793 10.1509C113.426 9.85593 112.975 9.70844 112.439 9.70844C112.081 9.70844 111.741 9.75313 111.419 9.84252C111.098 9.93191 110.838 10.0392 110.642 10.1643V19.5505L110.559 19.5735C110.38 19.6194 110.127 19.6654 109.797 19.7114C109.413 19.765 109.015 19.7918 108.604 19.7918C108.21 19.7918 107.857 19.765 107.544 19.7114C107.231 19.6578 106.968 19.5505 106.753 19.3896C106.539 19.2287 106.373 19.0097 106.257 18.7325C106.141 18.4554 106.083 18.0934 106.083 17.6464V2.09225L106.173 2.0761C106.364 2.04217 106.625 1.99838 106.954 1.94475C107.339 1.88218 107.728 1.85089 108.121 1.85089ZM76.0154 3.32585L76.0769 3.42977C76.1774 3.61228 76.2687 3.84135 76.3506 4.11697C76.449 4.44772 76.4981 4.79188 76.4981 5.14945C76.4981 5.8467 76.3506 6.34283 76.0557 6.63782C75.7607 6.93282 75.3629 7.08031 74.8623 7.08031H69.2306V10.1107H75.1036L75.1733 10.2142C75.2863 10.3955 75.3837 10.6202 75.4657 10.8884C75.564 11.2102 75.6132 11.5499 75.6132 11.9075C75.6132 12.5869 75.4657 13.074 75.1707 13.369C74.8757 13.664 74.4779 13.8115 73.9773 13.8115H69.2842V19.47L69.1931 19.493C68.9972 19.539 68.7191 19.585 68.359 19.6309C67.9389 19.6846 67.5232 19.7114 67.112 19.7114C66.7008 19.7114 66.3388 19.6801 66.0259 19.6175C65.713 19.555 65.4493 19.4432 65.2348 19.2823C65.0202 19.1214 64.8593 18.8979 64.752 18.6119C64.6448 18.3258 64.5911 17.9504 64.5911 17.4855V5.81989L64.5958 5.63105C64.6299 4.95092 64.8519 4.40601 65.2616 3.99629C65.7085 3.54933 66.3164 3.32585 67.0852 3.32585H76.0154ZM12.9843 2.40491V5.42641H4.36314V9.3812H11.9111V12.3677H4.36314V19.5773H0.793335V2.40491H12.9843ZM17.8547 6.86133V19.5773H14.4832V6.86133H17.8547ZM36.2284 2.43991V11.7027L40.3698 6.91967H44.4879L40.0432 11.7844L44.6629 19.5773H40.6498L37.605 14.1409L36.2284 15.5759V19.5773H32.9619V2.43991H36.2284ZM48.9967 2.38158V19.5773H45.6719V2.38158H48.9967ZM119.15 3.21557C119.707 3.04798 120.658 3.0107 121.772 3.50311C122.896 4.00021 123.597 4.85285 123.875 6.06103L129.909 6.57386C129.984 6.57819 130.058 6.59333 130.132 6.61927C130.243 6.65819 130.302 6.71293 130.352 6.75579C130.475 6.86087 130.515 6.9419 130.573 7.08699C130.677 7.34499 130.645 7.64864 130.51 7.85684C130.292 8.19252 129.951 8.40972 129.486 8.50842L124.615 9.54382L125.475 13.5892C125.574 14.0536 125.792 14.3527 126.128 14.4865C126.464 14.6203 126.901 14.6303 127.436 14.5164C127.704 14.4595 127.976 14.3783 128.253 14.2729C128.529 14.1675 128.767 14.0563 128.966 13.9393C129.168 14.1016 129.353 14.291 129.521 14.5074C129.688 14.7239 129.808 15.0018 129.88 15.3411C130.146 16.5956 128.172 17.7807 126.878 18.0133C125.679 18.2287 123.84 18.4077 122.788 15.6532C121.737 12.8987 120.086 8.2816 118.825 4.43385C118.716 4.1018 118.649 3.77567 118.766 3.50655C118.829 3.36109 118.875 3.2983 119.15 3.21557ZM98.0765 9.70844C97.2005 9.70844 96.5435 9.95426 96.1054 10.4459C95.6674 10.9376 95.4484 11.6393 95.4484 12.5511C95.4484 13.588 95.6674 14.3345 96.1054 14.7904C96.5435 15.2463 97.1022 15.4742 97.7815 15.4742C98.5145 15.4742 99.0956 15.3044 99.5247 14.9647V10.0302L99.4426 9.98734C99.3239 9.93013 99.168 9.87292 98.9749 9.8157C98.7336 9.74419 98.4341 9.70844 98.0765 9.70844ZM56.5736 9.26453C55.8036 9.26453 55.2067 9.50563 54.7828 9.98783C54.359 10.47 54.0926 11.1233 53.9837 11.9477H59.1518C59.0973 11.0689 58.831 10.402 58.3527 9.947C57.8743 9.49202 57.2813 9.26453 56.5736 9.26453ZM17.8547 2.27659V5.34475H14.4832V2.27659H17.8547ZM87.0131 0.51001C87.764 0.51001 88.3674 0.742429 88.8232 1.20727C89.2792 1.6721 89.5071 2.24421 89.5071 2.92359C89.5071 3.60297 89.2792 4.17508 88.8232 4.63991C88.3674 5.10475 87.764 5.33717 87.0131 5.33717C86.2622 5.33717 85.6588 5.10475 85.2029 4.63991C84.747 4.17508 84.519 3.60297 84.519 2.92359C84.519 2.24421 84.747 1.6721 85.2029 1.20727C85.6588 0.742429 86.2622 0.51001 87.0131 0.51001Z" fill="white"/>
</g>
<defs>
<clipPath id="clip0_8_2327">
<rect width="130.072" height="24.6688" fill="white" transform="translate(0.793335 0.117188)"/>
</clipPath>
</defs>
</svg>
