<svg width="98" height="24" viewBox="0 0 98 24" fill="none" xmlns="http://www.w3.org/2000/svg">
<path d="M12.0065 1.16577C6.06133 1.16577 1.24194 5.98516 1.24194 11.9303C1.24194 17.8755 6.06133 22.6949 12.0065 22.6949C17.9517 22.6949 22.7711 17.8755 22.7711 11.9303C22.7711 5.98516 17.9517 1.16577 12.0065 1.16577ZM14.5564 8.60454H12.9383C12.7466 8.60454 12.5335 8.85683 12.5335 9.1921V10.3605H14.5575L14.2514 12.0268H12.5335V17.0289H10.6239V12.0268H8.89152V10.3605H10.6239V9.38048C10.6239 7.97436 11.5995 6.83175 12.9383 6.83175H14.5564V8.60454Z" fill="white"/>
<g clip-path="url(#clip0_8_2333)">
<path d="M86.7605 1.16577C80.8153 1.16577 75.9959 5.98516 75.9959 11.9303C75.9959 17.8755 80.8153 22.6949 86.7605 22.6949C92.7057 22.6949 97.5251 17.8755 97.5251 11.9303C97.5251 5.98516 92.7057 1.16577 86.7605 1.16577ZM91.1392 9.98375C91.1437 10.0757 91.1448 10.1676 91.1448 10.2573C91.1448 13.0606 89.0132 16.2911 85.1133 16.2911C83.9609 16.293 82.8325 15.9621 81.8637 15.338C82.0286 15.3582 82.1979 15.366 82.3694 15.366C83.3629 15.366 84.2768 15.0285 85.0023 14.4589C84.5602 14.4502 84.1318 14.3038 83.7768 14.0401C83.4218 13.7764 83.158 13.4085 83.022 12.9877C83.3395 13.0481 83.6666 13.0355 83.9785 12.9507C83.4986 12.8537 83.0671 12.5937 82.7571 12.2148C82.447 11.8359 82.2776 11.3614 82.2775 10.8718V10.846C82.5634 11.0041 82.8908 11.1006 83.2384 11.1118C82.7886 10.8123 82.4701 10.3523 82.3482 9.82579C82.2262 9.2993 82.3101 8.74611 82.5825 8.27936C83.1151 8.9342 83.7792 9.4699 84.532 9.85178C85.2847 10.2337 86.1093 10.4532 86.9522 10.4962C86.8451 10.0413 86.8912 9.56371 87.0834 9.13773C87.2757 8.71174 87.6033 8.3612 88.0153 8.14061C88.4273 7.92002 88.9007 7.84174 89.3618 7.91793C89.8229 7.99412 90.2459 8.22052 90.5651 8.56193C91.0396 8.46805 91.4946 8.294 91.9107 8.04725C91.7525 8.53853 91.4214 8.9557 90.9789 9.22126C91.3992 9.17063 91.8096 9.05763 92.1966 8.88599C91.9123 9.31197 91.5542 9.68373 91.1392 9.98375Z" fill="white"/>
</g>
<g clip-path="url(#clip1_8_2333)">
<path d="M52.7474 11.9303C52.7474 12.8225 52.393 13.6781 51.7621 14.309C51.1313 14.9399 50.2756 15.2943 49.3835 15.2943C48.4913 15.2943 47.6357 14.9399 47.0048 14.309C46.374 13.6781 46.0195 12.8225 46.0195 11.9303C46.0195 11.7386 46.0397 11.5513 46.0745 11.3697H44.8982V15.8516C44.8982 16.1633 45.1505 16.4156 45.4622 16.4156H53.3058C53.4552 16.4153 53.5984 16.3557 53.7039 16.25C53.8094 16.1442 53.8687 16.001 53.8687 15.8516V11.3697H52.6925C52.7272 11.5513 52.7474 11.7386 52.7474 11.9303ZM49.3835 14.173C49.678 14.1729 49.9697 14.1148 50.2419 14.002C50.514 13.8892 50.7612 13.7239 50.9695 13.5156C51.1777 13.3072 51.3429 13.0599 51.4556 12.7877C51.5682 12.5155 51.6262 12.2238 51.6261 11.9292C51.626 11.6346 51.5679 11.343 51.4551 11.0708C51.3423 10.7987 51.177 10.5515 50.9687 10.3432C50.7603 10.135 50.513 9.9698 50.2408 9.85714C49.9686 9.74448 49.6769 9.68653 49.3823 9.6866C48.7874 9.68675 48.2169 9.92323 47.7963 10.344C47.3758 10.7648 47.1396 11.3354 47.1397 11.9303C47.1399 12.5253 47.3764 13.0958 47.7971 13.5163C48.2179 13.9369 48.7885 14.1731 49.3835 14.173ZM52.0746 9.57559H53.4191C53.5084 9.57559 53.5941 9.54019 53.6573 9.47713C53.7206 9.41408 53.7563 9.32852 53.7566 9.2392V7.89475C53.7566 7.80523 53.721 7.71939 53.6577 7.65609C53.5944 7.59279 53.5086 7.55723 53.4191 7.55723H52.0746C51.9851 7.55723 51.8992 7.59279 51.836 7.65609C51.7727 7.71939 51.7371 7.80523 51.7371 7.89475V9.2392C51.7382 9.42422 51.8896 9.57559 52.0746 9.57559ZM49.3835 1.16577C46.5285 1.16577 43.7905 2.29989 41.7718 4.31864C39.753 6.33739 38.6189 9.0754 38.6189 11.9303C38.6189 14.7853 39.753 17.5233 41.7718 19.542C43.7905 21.5608 46.5285 22.6949 49.3835 22.6949C50.7971 22.6949 52.1969 22.4165 53.5029 21.8755C54.8089 21.3345 55.9956 20.5416 56.9952 19.542C57.9948 18.5425 58.7877 17.3558 59.3286 16.0498C59.8696 14.7437 60.148 13.344 60.148 11.9303C60.148 10.5167 59.8696 9.11694 59.3286 7.81092C58.7877 6.5049 57.9948 5.31822 56.9952 4.31864C55.9956 3.31906 54.8089 2.52615 53.5029 1.98518C52.1969 1.44421 50.7971 1.16577 49.3835 1.16577ZM54.99 16.2911C54.99 16.9762 54.4294 17.5369 53.7442 17.5369H45.0227C44.3376 17.5369 43.7769 16.9762 43.7769 16.2911V7.56957C43.7769 6.88445 44.3376 6.32379 45.0227 6.32379H53.7442C54.4294 6.32379 54.99 6.88445 54.99 7.56957V16.2911Z" fill="white"/>
</g>
<defs>
<clipPath id="clip0_8_2333">
<rect width="22.4262" height="22.4262" fill="white" transform="translate(75.5472 0.717041)"/>
</clipPath>
<clipPath id="clip1_8_2333">
<rect width="22.4262" height="22.4262" fill="white" transform="translate(38.1703 0.717041)"/>
</clipPath>
</defs>
</svg>
