<svg width="16" height="16" viewBox="0 0 16 16" fill="none" xmlns="http://www.w3.org/2000/svg">
<path d="M7.12249 0.707319C7.50171 0.0133889 8.49829 0.0133891 8.87751 0.707319L9.96022 2.68853C10.1657 3.06451 10.5879 3.26782 11.0099 3.19404L13.234 2.80527C14.0129 2.6691 14.6343 3.44826 14.3282 4.17741L13.4543 6.25916C13.2884 6.65423 13.3927 7.11105 13.7135 7.39504L15.4041 8.89146C15.9963 9.41559 15.7745 10.3872 15.0136 10.6025L12.8412 11.2172C12.4289 11.3338 12.1367 11.7002 12.1147 12.1281L11.9989 14.3829C11.9583 15.1726 11.0604 15.605 10.4176 15.1443L8.58254 13.8291C8.23429 13.5795 7.76571 13.5795 7.41746 13.8291L5.58236 15.1443C4.9396 15.605 4.04172 15.1726 4.00113 14.3829L3.88526 12.1281C3.86327 11.7002 3.57112 11.3338 3.15884 11.2172L0.986381 10.6025C0.225463 10.3872 0.00370479 9.41559 0.595851 8.89146L2.28646 7.39504C2.6073 7.11105 2.71156 6.65423 2.54571 6.25916L1.6718 4.17741C1.36571 3.44826 1.98706 2.6691 2.76604 2.80527L4.99007 3.19404C5.41214 3.26782 5.83431 3.06451 6.03978 2.68853L7.12249 0.707319Z" fill="#149BFC"/>
</svg>
