<svg width="64" height="27" viewBox="0 0 64 27" fill="none" xmlns="http://www.w3.org/2000/svg">
<path d="M1.63013 6.08505C1.75013 6.06505 1.87013 6.04505 2.01013 6.00505C2.57013 5.86505 3.27013 5.72505 4.11013 5.58505C4.95013 5.44505 5.79013 5.38505 6.67013 5.40505C6.85013 5.40505 7.01013 5.32505 7.13013 5.14505C7.23013 4.96505 7.27013 4.76505 7.23013 4.54505C9.85013 3.98505 12.4902 3.52505 15.1902 3.14505C14.9102 3.56505 14.6302 3.94505 14.4102 4.26505C14.0902 4.70505 13.7702 5.14505 13.4702 5.58505C13.1702 6.02505 12.8502 6.54505 12.4702 7.16505C12.0702 7.80505 11.5902 8.68505 11.0102 9.80505C10.4502 10.9451 9.85013 12.2251 9.25013 13.6451C8.63013 15.0851 8.23013 16.545 8.01013 18.025C7.81013 19.525 7.93013 20.5651 8.41013 21.1651C8.87013 21.6251 9.47013 21.7851 10.1902 21.6451C10.5702 21.5251 10.7902 21.325 10.8302 21.005C10.8502 20.705 10.6902 20.485 10.3102 20.365C10.1902 20.345 10.0902 20.3251 10.0102 20.3251C9.89013 20.3451 9.81013 20.325 9.73013 20.305C9.65013 20.265 9.59013 20.1851 9.53013 20.0651C9.45013 19.8451 9.41013 19.565 9.39013 19.265C9.39013 18.965 9.41013 18.685 9.43013 18.445C9.77013 16.245 10.5702 13.905 11.8302 11.425C13.0702 8.94505 14.3902 6.76505 15.7502 4.84505C15.7902 4.80505 15.8302 4.74505 15.8702 4.68505L16.3902 3.96505C16.6102 3.68505 16.8102 3.42505 17.0302 3.20505C17.2302 2.96505 17.4102 2.84505 17.5502 2.82505L19.7902 2.54505C21.2702 2.36505 22.6502 2.20505 23.9502 2.10505C25.2502 2.00505 26.8302 1.96505 28.6902 2.00505C28.8302 2.00505 28.9502 2.00505 29.0902 2.02505C29.2102 2.04505 29.3502 2.06505 29.4702 2.06505C29.7702 2.04505 29.9902 1.96505 30.1502 1.78505C30.2902 1.60505 30.3502 1.42505 30.3102 1.22505C30.2702 1.00505 30.1102 0.86505 29.8302 0.76505C29.2302 0.60505 28.2902 0.54505 27.0102 0.60505C25.7302 0.64505 24.4102 0.72505 23.0102 0.86505C21.6302 0.98505 20.4902 1.10505 19.5902 1.20505C19.3102 1.24505 19.0902 1.26505 18.9102 1.28505C18.9302 0.80505 18.7902 0.52505 18.4702 0.44505C18.1702 0.36505 17.8702 0.40505 17.5702 0.58505C17.2702 0.78505 17.0702 0.98505 16.9102 1.18505C16.8102 1.30505 16.7102 1.40505 16.6102 1.48505C16.4902 1.58505 16.3702 1.62505 16.2102 1.64505C15.2502 1.78505 13.7302 2.00505 11.6502 2.36505C9.57013 2.70505 7.51013 3.10505 5.49013 3.56505C3.45013 4.00505 2.03013 4.46505 1.21013 4.92505C0.870131 5.18505 0.750131 5.44505 0.850131 5.74505C0.950131 6.02505 1.21013 6.14505 1.63013 6.08505ZM19.4278 14.6451C19.7678 14.5851 20.1878 14.3651 20.6878 14.0451C21.2078 13.7051 21.6678 13.3651 22.1078 13.0251C22.5478 12.6651 22.8078 12.4451 22.9078 12.3251C22.6878 12.8051 22.3678 13.5851 21.9478 14.6051C21.5078 15.6451 21.1678 16.525 20.9278 17.285C20.8278 17.605 20.9078 17.865 21.1278 18.045C21.3478 18.245 21.5878 18.305 21.8678 18.285C22.1478 18.245 22.3478 18.085 22.4278 17.785C22.8678 15.885 23.7478 13.665 25.0478 11.085C26.3478 8.50505 27.8878 5.84505 29.6678 3.08505C29.8878 2.70505 29.9078 2.38505 29.7278 2.12505C29.5478 1.86505 29.3078 1.72505 28.9878 1.70505C28.6678 1.68505 28.4078 1.82505 28.1878 2.14505C27.2278 3.86505 26.4878 5.18505 26.0078 6.10505C25.6478 6.80505 25.3078 7.40505 25.0078 7.92505C24.7078 8.44505 24.3478 8.98505 23.9478 9.54505C23.3478 10.3851 22.4678 11.305 21.2678 12.265C20.5678 12.845 20.0478 13.165 19.7478 13.265C19.4278 13.365 19.2278 13.305 19.1878 13.085C19.1478 12.865 19.1678 12.5851 19.2878 12.2251C19.3878 11.8451 19.5278 11.5051 19.6678 11.1651C19.8278 10.8051 19.9478 10.5651 20.0278 10.4051C20.0878 10.2851 20.0478 10.1451 19.9478 10.0051C19.8478 9.86505 19.7078 9.76505 19.5478 9.68505C19.3878 9.60505 19.2278 9.60505 19.1078 9.66505C18.9278 9.76505 18.7078 9.92505 18.4878 10.1251C17.8478 9.50505 17.1478 9.52505 16.3878 10.2051C14.2878 11.9651 13.1078 13.3851 12.8478 14.4851C12.5878 15.5851 12.8878 16.0251 13.7278 15.7851C14.0478 15.6451 14.4678 15.365 14.9878 14.925C15.5278 14.485 16.0678 14.0051 16.6078 13.5251C17.1278 13.0251 17.5678 12.6451 17.9078 12.3651C17.7278 13.2651 17.8078 13.8851 18.1278 14.2451C18.4678 14.6051 18.9078 14.7451 19.4278 14.6451ZM15.0078 13.2451L15.2478 12.9651C15.4078 12.7851 15.6078 12.5851 15.8278 12.3651C16.0678 12.1251 16.2678 11.945 16.4678 11.765C16.6678 11.605 16.8078 11.5251 16.8878 11.5251C16.8078 11.6251 16.6678 11.7651 16.4878 11.9451C16.2878 12.1451 16.0678 12.3451 15.8478 12.5451C15.6278 12.7651 15.4278 12.9251 15.2678 13.0651C15.1078 13.2051 15.0078 13.2651 15.0078 13.2451ZM34.1324 4.52505C34.5924 3.70505 35.0324 3.00505 35.4524 2.40505C35.6924 2.02505 35.8724 1.74505 35.9724 1.56505C36.1124 1.30505 36.0924 1.06505 35.9724 0.84505C35.8324 0.62505 35.6324 0.54505 35.3324 0.56505C35.0524 0.58505 34.7324 0.82505 34.3724 1.26505C30.9924 5.88505 28.2524 10.8051 26.1924 16.0251L26.1324 16.1651C25.7924 16.9651 25.4524 17.865 25.1524 18.885C25.0924 19.125 25.1724 19.305 25.3924 19.445C25.5924 19.585 25.8324 19.645 26.0924 19.625C26.3324 19.625 26.5124 19.5251 26.5924 19.3251C26.8724 18.4451 27.2724 17.4051 27.7524 16.1851C28.2524 14.965 28.6924 13.9251 29.0724 13.0651C29.3724 13.5451 29.9924 13.785 30.9324 13.765C31.8724 13.745 33.0124 13.5651 34.3324 13.2451C35.6324 12.9051 36.7124 12.5651 37.5124 12.2251C37.7724 12.1051 37.8924 11.965 37.9324 11.765C37.9524 11.565 37.8724 11.405 37.7324 11.265C37.5724 11.145 37.3724 11.1051 37.1124 11.1651C36.3724 11.4451 35.6124 11.6851 34.8324 11.8851C34.0524 12.0851 33.3524 12.245 32.7124 12.345C32.0724 12.445 31.5124 12.4851 31.0324 12.4651C30.5524 12.4451 30.4524 12.285 30.7324 12.005C31.3724 11.465 32.1724 11.0451 33.1124 10.7251C33.3924 10.6051 33.5124 10.4051 33.5124 10.1451C33.4924 9.88505 33.3924 9.66505 33.1724 9.48505C32.9724 9.30505 32.7124 9.24505 32.4124 9.34505C32.0524 9.48505 31.6724 9.70505 31.2524 10.0051C30.8324 10.2851 30.5324 10.5051 30.3324 10.6651C30.3524 10.4651 30.5724 9.98505 30.9924 9.24505C31.3924 8.48505 31.8324 7.72505 32.2924 6.94505C32.7524 6.18505 33.0724 5.66505 33.2324 5.38505C33.3324 5.24505 33.4124 5.14505 33.4724 5.10505C33.5324 5.06505 33.5924 5.02505 33.6524 5.02505C33.7124 5.00505 33.7924 4.96505 33.8724 4.90505C33.9324 4.84505 34.0324 4.72505 34.1324 4.52505ZM37.6346 9.56505C37.2746 10.0051 36.8346 10.685 36.2946 11.585C35.7546 12.485 35.4946 13.325 35.5146 14.085C35.7346 15.145 36.2546 15.6651 37.0946 15.6451C37.9346 15.6251 38.8746 15.3251 39.9346 14.7251C40.9946 14.1251 41.9546 13.4851 42.8346 12.7851C43.7146 12.0851 44.2946 11.5851 44.6146 11.2851C44.7946 11.0851 44.8746 10.9251 44.8346 10.7651C44.7946 10.6051 44.7146 10.5051 44.5546 10.4451C44.4146 10.3851 44.2546 10.4251 44.0946 10.5251C44.0746 10.5451 44.0346 10.5851 43.9546 10.6451C43.6746 10.8651 43.1746 11.2651 42.4346 11.8051C41.6946 12.3451 40.8946 12.8651 40.0146 13.3651C39.1346 13.8651 38.3146 14.165 37.5946 14.265C37.1146 14.305 36.9146 14.1251 36.9946 13.7251C37.0546 13.3251 37.2946 12.8251 37.6746 12.2451C38.0546 11.6451 38.4546 11.0651 38.8946 10.5051C39.0546 10.2451 39.0546 10.0251 38.8946 9.80505C38.7346 9.60505 38.5346 9.46505 38.2746 9.40505C37.9946 9.34505 37.7946 9.38505 37.6346 9.56505ZM38.8146 8.34505C38.7346 8.70505 38.7546 8.92505 38.8746 8.98505C39.0546 9.02505 39.3346 8.92505 39.7146 8.64505C40.0946 8.38505 40.4546 8.06505 40.8146 7.68505C41.1546 7.32505 41.3746 7.00505 41.4746 6.76505C41.5346 6.54505 41.4546 6.40505 41.2346 6.32505C41.0346 6.24505 40.7946 6.20505 40.5346 6.22505C40.2746 6.22505 40.0746 6.28505 39.9546 6.36505C39.7146 6.54505 39.4746 6.84505 39.2746 7.22505C39.0546 7.62505 38.9146 8.00505 38.8146 8.34505ZM44.2613 9.46505C43.3213 11.0451 42.5413 12.5051 41.9213 13.8851C41.8213 14.1651 41.8413 14.4051 41.9813 14.6251C42.1213 14.8251 42.3213 14.9651 42.5413 15.0451C42.7813 15.1251 42.9813 15.0851 43.1613 14.9651C43.3613 14.7651 43.7213 14.385 44.2413 13.845L45.6413 12.425C46.1213 11.945 46.5213 11.545 46.8413 11.265C47.1813 10.985 47.3213 10.9051 47.3013 11.0451C47.2413 11.2051 47.1613 11.3851 47.0613 11.6051C46.8013 12.1251 46.6013 12.6851 46.4413 13.2851C46.2813 13.8851 46.3813 14.3051 46.7813 14.5651C47.4413 14.8451 48.3413 14.665 49.4613 14.085C50.5813 13.485 51.5813 12.8451 52.5013 12.1251C52.7213 11.9451 52.8213 11.7651 52.8213 11.5651C52.8013 11.3651 52.7213 11.2251 52.5613 11.1251C52.4013 11.0451 52.2013 11.0651 51.9813 11.2251C51.9613 11.2251 51.9413 11.2451 51.9413 11.2451C51.7213 11.4051 51.3613 11.6651 50.8213 12.0251C50.3013 12.3851 49.7613 12.7051 49.2013 12.9851C48.6413 13.2651 48.2213 13.3651 47.9213 13.2851C47.8413 13.2451 47.8613 13.0451 48.0213 12.7251C48.1613 12.4051 48.3413 12.0451 48.5613 11.6251L49.0013 10.7851C49.1213 10.5251 49.2013 10.3251 49.2413 10.1651C49.2813 9.96505 49.2213 9.74505 49.0813 9.54505C48.9413 9.32505 48.7813 9.16505 48.5613 9.04505C48.3613 8.92505 48.1613 8.88505 47.9813 8.94505C47.7613 9.04505 47.4013 9.30505 46.9213 9.70505C46.4413 10.0851 45.9613 10.5051 45.5013 10.9251C45.0213 11.3451 44.7013 11.645 44.5013 11.845C44.5013 11.765 44.5613 11.6451 44.6613 11.4651C44.7813 11.3051 44.9213 11.1051 45.0813 10.8651C45.2213 10.6851 45.3613 10.4651 45.5013 10.2651C45.6213 10.0651 45.6013 9.86505 45.4613 9.64505C45.3013 9.44505 45.1013 9.30505 44.8613 9.24505C44.6213 9.18505 44.4213 9.26505 44.2613 9.46505ZM48.8527 25.8251C49.6727 24.8251 50.4727 23.725 51.2327 22.525C51.9127 21.485 52.4327 20.745 52.8327 20.345L53.9527 19.265C56.4127 16.785 59.4527 14.125 63.0727 11.265C63.3127 11.065 63.4327 10.8251 63.4127 10.5451C63.4127 10.2851 63.3327 10.0651 63.1727 9.90505C63.0127 9.74505 62.8327 9.74505 62.6127 9.90505C60.6127 11.5251 58.8927 13.005 57.4727 14.345C56.4527 15.265 55.6927 15.9251 55.1527 16.3651C55.3327 16.0851 55.6727 15.4651 56.1527 14.4851C56.6327 13.5251 57.0327 12.5251 57.3727 11.4851C57.7127 10.4451 57.7527 9.68505 57.5127 9.22505C57.3927 9.04505 57.2327 8.96505 57.0527 8.98505C56.8527 9.00505 56.6727 9.06505 56.5127 9.18505L56.1527 9.42505C56.1327 9.42505 56.1327 9.44505 56.1127 9.44505C56.0127 9.38505 55.8927 9.26505 55.7727 9.10505C55.6727 8.98505 55.5727 8.86505 55.4527 8.74505C55.3327 8.64505 55.1927 8.58505 55.0327 8.58505C54.6127 8.62505 54.0527 8.94505 53.3727 9.54505C52.6727 10.1651 52.0127 10.8451 51.3727 11.6251C50.7127 12.4051 50.2127 13.0651 49.8927 13.6251C49.5327 14.2451 49.3927 14.7651 49.4527 15.1851C49.5327 15.605 49.8327 15.7651 50.3527 15.6451C50.7127 15.5251 51.2127 15.205 51.8327 14.6851C52.4527 14.1651 53.0927 13.5851 53.7727 12.9451C54.7327 12.0451 55.5327 11.3451 56.1727 10.8851C55.8327 12.1451 55.3727 13.2851 54.8127 14.3051C54.2327 15.3251 53.5727 16.3451 52.8527 17.4051C52.7327 17.5851 52.5927 17.7851 52.4727 17.9851C51.9727 18.6651 51.2727 19.445 50.3927 20.305C49.4327 21.225 48.4727 22.2851 47.4927 23.4851C47.2127 23.9051 47.1327 24.3651 47.2727 24.8251C47.3927 25.3051 47.6127 25.645 47.9327 25.885C48.2527 26.125 48.5727 26.1051 48.8527 25.8251Z" fill="#3E3E3E"/>
</svg>
